<svg xmlns="http://www.w3.org/2000/svg" width="500" height="83" viewBox="0 0 500 83" fill="none">
  <path
    d="M0 55.6922H18.3408C19.3005 64.3341 24.952 68.175 35.1888 68.175C42.2265 68.175 48.8377 65.401 48.8377 58.8929C48.8377 51.9581 42.1199 50.4644 30.6036 47.7972C15.1418 44.2764 2.55918 40.4355 2.55918 23.8986C2.55918 7.36162 15.9949 0 33.4826 0C50.9704 0 63.3398 8.10845 64.5127 23.6852H46.7051C45.7454 17.4972 40.8403 13.8697 32.9495 13.8697C25.4852 13.8697 20.4735 17.0704 20.4735 22.0849C20.4735 28.2729 27.2979 29.6598 39.774 32.4338C54.0627 35.6345 67.1785 40.3289 67.1785 57.0792C67.1785 73.8295 53.3163 82.6848 35.1888 82.6848C13.9689 82.6848 0.533163 72.8693 0 55.6922Z"
    fill="black" />
  <path
    d="M77.6283 1.38702H137.129V16.537H95.7559V32.3272H131.584V46.7303H95.7559V65.1877H137.876V80.7645H77.6283V1.38702Z"
    fill="black" />
  <path
    d="M145.02 56.7592V50.6778H161.762V56.3324C161.762 64.2275 165.174 67.2148 171.145 67.2148C177.117 67.2148 179.996 63.5873 179.996 57.1859V1.38702H198.23V57.6127C198.23 64.2275 196.63 69.562 193.218 73.6162C188.953 78.9507 181.809 82.2581 172.212 82.2581C154.084 82.2581 145.02 72.4426 145.02 56.7592Z"
    fill="black" />
  <path d="M210.813 1.38702H229.047V80.7645H210.813V1.38702Z" fill="black" />
  <path
    d="M242.589 1.38702H261.143L282.043 35.8479C286.735 43.8497 292.92 56.7592 292.92 56.7592H293.133C293.133 56.7592 292.173 42.5694 292.173 33.5007V1.38702H309.554V80.7645H290.894L270.207 46.7303C265.409 38.7286 259.224 25.499 259.224 25.499H259.011C259.011 25.499 259.97 39.7955 259.97 48.8641V80.7645H242.589V1.38702Z"
    fill="black" />
  <path
    d="M345.276 41.3958C345.276 17.6039 360.418 0 384.517 0C408.616 0 423.651 17.6039 423.651 41.3958C423.651 65.1876 408.509 82.6848 384.517 82.6848C360.525 82.6848 345.276 65.081 345.276 41.3958ZM405.097 41.3958C405.097 26.3525 398.273 14.7232 384.624 14.7232C370.975 14.7232 363.83 26.3525 363.83 41.3958C363.83 56.4391 370.868 67.7482 384.624 67.7482C398.379 67.7482 405.097 56.3324 405.097 41.3958Z"
    fill="black" />
  <path
    d="M433.781 1.38702H451.909V32.0071H481.872V1.38702H500V80.7645H481.872V47.1571H451.909V80.7645H433.781V1.38702Z"
    fill="black" />
</svg>